<?xml version="1.0" encoding="UTF-8" standalone="no"?>
<!DOCTYPE svg PUBLIC "-//W3C//DTD SVG 1.1//EN" "http://www.w3.org/Graphics/SVG/1.1/DTD/svg11.dtd">
<svg width="100%" height="100%" viewBox="0 0 646 235" version="1.1" xmlns="http://www.w3.org/2000/svg" xmlns:xlink="http://www.w3.org/1999/xlink" xml:space="preserve" xmlns:serif="http://www.serif.com/" style="fill-rule:evenodd;clip-rule:evenodd;stroke-linecap:round;stroke-linejoin:round;stroke-miterlimit:1.5;">
    <g id="Artboard1" transform="matrix(0.924177,0,0,0.758065,0,0)">
        <rect x="0" y="0" width="699" height="310" style="fill:none;"/>
        <g transform="matrix(0.633661,0,0,0.772514,106.001,7.54835)">
            <text x="124px" y="227px" style="font-family:'ADAM.CGPRO', 'ADAM.CG PRO';font-size:139.605px;">o<tspan x="252.297px 380.593px 461.704px 513.357px 595.864px 724.16px 852.457px " y="227px 227px 227px 227px 227px 227px 227px ">ol tool</tspan></text>
        </g>
        <g transform="matrix(0.734244,0,0,2.38081,21.2931,-194.708)">
            <path d="M139,126.927C139,125.863 137.432,125 135.5,125L128.5,125C126.568,125 125,125.863 125,126.927L125,183.073C125,184.137 126.568,185 128.5,185L135.5,185C137.432,185 139,184.137 139,183.073L139,126.927Z"/>
        </g>
        <g transform="matrix(1.08204,0,0,1.31915,-23.0998,-59.3617)">
            <path d="M180,153.326C180,136.589 166.411,123 149.674,123L129.394,123L128.624,183.652L149.674,183.652C166.411,183.652 180,170.063 180,153.326ZM170,153.326C170,164.544 160.892,173.652 149.674,173.652L128.24,173.652L128.624,133L149.674,133C160.892,133 170,142.108 170,153.326Z"/>
        </g>
        <g transform="matrix(0.228401,0,0,0.27845,265.669,188.935)">
            <text x="124px" y="227px" style="font-family:'ADAM.CGPRO', 'ADAM.CG PRO';font-size:139.605px;fill:rgb(18,168,237);">P<tspan x="300.041px 480.69px 696.937px 853.295px 1027.38px 1217.52px 1394.68px " y="227px 227px 227px 227px 227px 227px 227px ">ROJECTS</tspan></text>
        </g>
        <g transform="matrix(1.08204,0,0,1.31915,-27.0511,-58.0426)">
            <path d="M78,143C73.849,185.024 90.274,214.702 134,228" style="fill:none;stroke:black;stroke-width:10px;"/>
        </g>
        <g transform="matrix(1.08204,0,0,1.31915,-27.0511,-59.3617)">
            <path d="M225.5,231.985C205.77,255.237 176.346,270 143.5,270C84.169,270 36,221.831 36,162.5C36,103.169 84.169,55 143.5,55C176.346,55 205.77,69.763 225.5,93.015" style="fill:none;stroke:rgb(219,54,60);stroke-width:9.33px;"/>
        </g>
    </g>
</svg>
