<?xml version="1.0" encoding="UTF-8" standalone="no"?><!DOCTYPE svg PUBLIC "-//W3C//DTD SVG 1.1//EN" "http://www.w3.org/Graphics/SVG/1.1/DTD/svg11.dtd"><svg width="100%" height="100%" viewBox="0 0 646 235" version="1.1" xmlns="http://www.w3.org/2000/svg" xmlns:xlink="http://www.w3.org/1999/xlink" xml:space="preserve" xmlns:serif="http://www.serif.com/" style="fill-rule:evenodd;clip-rule:evenodd;stroke-linecap:round;stroke-linejoin:round;stroke-miterlimit:1.5;"><rect id="Artboard1" x="0" y="0" width="646" height="235" style="fill:none;"/><path d="M105,140.854l-0,-54.637l24.977,-0c4.995,-0 9.301,0.806 12.918,2.419c3.616,1.614 6.413,3.942 8.391,6.986c1.977,3.044 2.966,6.648 2.966,10.811c-0,4.11 -0.989,7.675 -2.966,10.693c-1.978,3.018 -4.775,5.346 -8.391,6.986c-3.617,1.639 -7.923,2.458 -12.918,2.458l-16.391,0l6.869,-6.712l-0,20.996l-15.455,-0Zm15.455,-19.357l-6.869,-7.103l15.454,-0c3.227,-0 5.633,-0.703 7.22,-2.107c1.587,-1.405 2.381,-3.357 2.381,-5.854c-0,-2.55 -0.794,-4.528 -2.381,-5.932c-1.587,-1.405 -3.993,-2.108 -7.22,-2.108l-15.454,0l6.869,-7.103l-0,30.207Z" style="fill-rule:nonzero;"/><path d="M195.542,141.947c-4.371,-0 -8.404,-0.703 -12.099,-2.108c-3.694,-1.405 -6.907,-3.395 -9.639,-5.971c-2.732,-2.576 -4.852,-5.581 -6.362,-9.015c-1.509,-3.434 -2.263,-7.207 -2.263,-11.318c-0,-4.11 0.754,-7.883 2.263,-11.317c1.51,-3.435 3.63,-6.44 6.362,-9.015c2.732,-2.576 5.945,-4.567 9.639,-5.972c3.695,-1.404 7.728,-2.107 12.099,-2.107c4.423,0 8.468,0.703 12.137,2.107c3.668,1.405 6.856,3.396 9.561,5.972c2.706,2.575 4.827,5.58 6.362,9.015c1.535,3.434 2.302,7.207 2.302,11.317c0,4.111 -0.767,7.897 -2.302,11.357c-1.535,3.46 -3.656,6.466 -6.362,9.015c-2.705,2.55 -5.893,4.527 -9.561,5.932c-3.669,1.405 -7.714,2.108 -12.137,2.108Zm-0,-12.801c2.081,0 4.019,-0.364 5.815,-1.093c1.795,-0.728 3.356,-1.782 4.683,-3.161c1.327,-1.379 2.367,-3.031 3.122,-4.956c0.754,-1.926 1.132,-4.059 1.132,-6.401c-0,-2.393 -0.378,-4.54 -1.132,-6.439c-0.755,-1.899 -1.795,-3.538 -3.122,-4.917c-1.327,-1.379 -2.888,-2.433 -4.683,-3.161c-1.796,-0.729 -3.734,-1.093 -5.815,-1.093c-2.082,-0 -4.02,0.364 -5.815,1.093c-1.796,0.728 -3.357,1.782 -4.684,3.161c-1.326,1.379 -2.367,3.018 -3.122,4.917c-0.754,1.899 -1.131,4.046 -1.131,6.439c-0,2.342 0.377,4.475 1.131,6.401c0.755,1.925 1.796,3.577 3.122,4.956c1.327,1.379 2.888,2.433 4.684,3.161c1.795,0.729 3.733,1.093 5.815,1.093Z" style="fill-rule:nonzero;"/><path d="M267.038,141.947c-4.371,-0 -8.403,-0.703 -12.098,-2.108c-3.694,-1.405 -6.908,-3.395 -9.64,-5.971c-2.731,-2.576 -4.852,-5.581 -6.361,-9.015c-1.509,-3.434 -2.263,-7.207 -2.263,-11.318c-0,-4.11 0.754,-7.883 2.263,-11.317c1.509,-3.435 3.63,-6.44 6.361,-9.015c2.732,-2.576 5.946,-4.567 9.64,-5.972c3.695,-1.404 7.727,-2.107 12.098,-2.107c4.423,0 8.469,0.703 12.138,2.107c3.668,1.405 6.855,3.396 9.561,5.972c2.706,2.575 4.826,5.58 6.361,9.015c1.535,3.434 2.303,7.207 2.303,11.317c-0,4.111 -0.768,7.897 -2.303,11.357c-1.535,3.46 -3.655,6.466 -6.361,9.015c-2.706,2.55 -5.893,4.527 -9.561,5.932c-3.669,1.405 -7.715,2.108 -12.138,2.108Zm0,-12.801c2.082,0 4.02,-0.364 5.815,-1.093c1.795,-0.728 3.357,-1.782 4.683,-3.161c1.327,-1.379 2.368,-3.031 3.123,-4.956c0.754,-1.926 1.131,-4.059 1.131,-6.401c0,-2.393 -0.377,-4.54 -1.131,-6.439c-0.755,-1.899 -1.796,-3.538 -3.123,-4.917c-1.326,-1.379 -2.888,-2.433 -4.683,-3.161c-1.795,-0.729 -3.733,-1.093 -5.815,-1.093c-2.081,-0 -4.019,0.364 -5.815,1.093c-1.795,0.728 -3.356,1.782 -4.683,3.161c-1.327,1.379 -2.367,3.018 -3.122,4.917c-0.754,1.899 -1.132,4.046 -1.132,6.439c0,2.342 0.378,4.475 1.132,6.401c0.755,1.925 1.795,3.577 3.122,4.956c1.327,1.379 2.888,2.433 4.683,3.161c1.796,0.729 3.734,1.093 5.815,1.093Z" style="fill-rule:nonzero;"/><path d="M310.982,140.854l0,-54.637l15.455,-0l-0,42.383l26.069,-0l0,12.254l-41.524,-0Z" style="fill-rule:nonzero;"/><path d="M403.865,140.854l0,-42.383l-16.781,0l-0,-12.254l48.939,-0l0,12.254l-16.703,0l-0,42.383l-15.455,-0Z" style="fill-rule:nonzero;"/><path d="M474.035,141.947c-4.371,-0 -8.404,-0.703 -12.098,-2.108c-3.695,-1.405 -6.908,-3.395 -9.64,-5.971c-2.731,-2.576 -4.852,-5.581 -6.361,-9.015c-1.509,-3.434 -2.263,-7.207 -2.263,-11.318c-0,-4.11 0.754,-7.883 2.263,-11.317c1.509,-3.435 3.63,-6.44 6.361,-9.015c2.732,-2.576 5.945,-4.567 9.64,-5.972c3.694,-1.404 7.727,-2.107 12.098,-2.107c4.423,0 8.469,0.703 12.137,2.107c3.669,1.405 6.856,3.396 9.562,5.972c2.706,2.575 4.826,5.58 6.361,9.015c1.535,3.434 2.303,7.207 2.303,11.317c-0,4.111 -0.768,7.897 -2.303,11.357c-1.535,3.46 -3.655,6.466 -6.361,9.015c-2.706,2.55 -5.893,4.527 -9.562,5.932c-3.668,1.405 -7.714,2.108 -12.137,2.108Zm0,-12.801c2.082,0 4.02,-0.364 5.815,-1.093c1.795,-0.728 3.356,-1.782 4.683,-3.161c1.327,-1.379 2.368,-3.031 3.122,-4.956c0.755,-1.926 1.132,-4.059 1.132,-6.401c0,-2.393 -0.377,-4.54 -1.132,-6.439c-0.754,-1.899 -1.795,-3.538 -3.122,-4.917c-1.327,-1.379 -2.888,-2.433 -4.683,-3.161c-1.795,-0.729 -3.733,-1.093 -5.815,-1.093c-2.081,-0 -4.02,0.364 -5.815,1.093c-1.795,0.728 -3.356,1.782 -4.683,3.161c-1.327,1.379 -2.368,3.018 -3.122,4.917c-0.755,1.899 -1.132,4.046 -1.132,6.439c0,2.342 0.377,4.475 1.132,6.401c0.754,1.925 1.795,3.577 3.122,4.956c1.327,1.379 2.888,2.433 4.683,3.161c1.795,0.729 3.734,1.093 5.815,1.093Z" style="fill-rule:nonzero;"/><path d="M545.532,141.947c-4.371,-0 -8.404,-0.703 -12.098,-2.108c-3.695,-1.405 -6.908,-3.395 -9.64,-5.971c-2.732,-2.576 -4.852,-5.581 -6.361,-9.015c-1.509,-3.434 -2.264,-7.207 -2.264,-11.318c0,-4.11 0.755,-7.883 2.264,-11.317c1.509,-3.435 3.629,-6.44 6.361,-9.015c2.732,-2.576 5.945,-4.567 9.64,-5.972c3.694,-1.404 7.727,-2.107 12.098,-2.107c4.423,0 8.469,0.703 12.137,2.107c3.669,1.405 6.856,3.396 9.562,5.972c2.705,2.575 4.826,5.58 6.361,9.015c1.535,3.434 2.302,7.207 2.302,11.317c0,4.111 -0.767,7.897 -2.302,11.357c-1.535,3.46 -3.656,6.466 -6.361,9.015c-2.706,2.55 -5.893,4.527 -9.562,5.932c-3.668,1.405 -7.714,2.108 -12.137,2.108Zm-0,-12.801c2.081,0 4.02,-0.364 5.815,-1.093c1.795,-0.728 3.356,-1.782 4.683,-3.161c1.327,-1.379 2.368,-3.031 3.122,-4.956c0.755,-1.926 1.132,-4.059 1.132,-6.401c-0,-2.393 -0.377,-4.54 -1.132,-6.439c-0.754,-1.899 -1.795,-3.538 -3.122,-4.917c-1.327,-1.379 -2.888,-2.433 -4.683,-3.161c-1.795,-0.729 -3.734,-1.093 -5.815,-1.093c-2.082,-0 -4.02,0.364 -5.815,1.093c-1.795,0.728 -3.356,1.782 -4.683,3.161c-1.327,1.379 -2.368,3.018 -3.122,4.917c-0.755,1.899 -1.132,4.046 -1.132,6.439c-0,2.342 0.377,4.475 1.132,6.401c0.754,1.925 1.795,3.577 3.122,4.956c1.327,1.379 2.888,2.433 4.683,3.161c1.795,0.729 3.733,1.093 5.815,1.093Z" style="fill-rule:nonzero;"/><path d="M589.476,140.854l-0,-54.637l15.454,-0l0,42.383l26.07,-0l-0,12.254l-41.524,-0Z" style="fill-rule:nonzero;"/><path d="M260.023,165.896c-6.18,-9.549 -14.01,-5.298 -22.884,-7.014l-1.117,-0.224c-6.337,-2.131 -14.68,-1.684 -18.032,4.946c-2.832,5.289 1.043,10.728 3.724,15.275c2.24,3.727 3.358,8.125 3.209,12.523c-0,0.894 -0.075,1.714 -0.224,2.46c-1.416,6.186 -2.087,15.504 6.704,14.759c0,-0 10.508,-0 6.928,-16.25c-0.67,-2.758 2.535,-4.1 4.624,-4.92c4.55,-1.118 9.025,-2.012 12.749,-4.77c4.915,-3.36 7.821,-11.562 4.319,-16.785Zm-8.937,10.076c-3.803,2.609 -7.905,1.342 -11.186,3.951c-0.82,0.596 -1.566,1.192 -2.461,1.64c-1.64,0.894 -3.356,1.49 -5.294,1.267c-3.578,-0.597 -0.522,-6.634 3.43,-9.094c2.61,-1.491 21.544,-4.396 15.511,2.236Z" style="fill:#369bf0;fill-rule:nonzero;"/><path d="M312.274,192.893c-1.788,-3.131 -2.979,-5.218 -8.266,-7.378c-1.191,-0.521 -8.202,-1.936 -3.652,-2.904c5.812,-1.266 9.46,-2.756 10.726,-7.974c1.267,-4.775 0.521,-8.354 -3.723,-12.524c-5.363,-5.437 -12.895,-1.788 -19.458,-3.203c-5.44,-1.266 -13.112,-3.278 -16.987,1.937c-5.442,8.12 2.906,15.73 2.385,24.147c-0.373,7.079 -7.976,18.483 -1.043,22.583c3.948,1.565 9.087,1.565 12.439,-1.118c2.236,-1.938 2.609,-4.323 2.385,-6.56c-0.447,-4.696 -3.577,-9.392 0.523,-11.479c1.118,-0.521 2.386,-0.745 3.505,-0.447c4.325,1.118 5.817,7.305 5.444,11.33c-0.522,5.292 1.044,8.796 6.265,9.318l2.68,-0c7.448,-0.82 10.131,-10.212 6.777,-15.728Zm-18.183,-16.241c-5.295,1.49 -10.812,-1.194 -8.651,-6.491c2.237,-4.995 8.726,-2.313 12.305,-0.373c2.76,1.268 5.891,1.641 4.773,4.849c-0.745,2.015 -4.027,0.821 -8.427,2.015Z" style="fill:#369bf0;fill-rule:nonzero;"/><path d="M365.166,176.198c2.46,-8.573 -2.534,-9.02 -7.659,-14.01c-6.388,-8.419 -21.678,-4.767 -29.575,-0.075c-15.201,8.418 0.82,14.383 -4.767,23.182c-3.949,5.443 -1.341,13.339 4.916,15.489c4.693,1.631 6.481,9.849 12.223,7.234c7.831,-4.12 11.558,-1.056 17.5,-3.675c12.505,-8.087 -1.04,-16.14 6.84,-26.952c0.224,-0.447 0.522,-0.895 0.522,-1.193Zm-14.346,6.189c-0.374,2.162 -1.565,4.399 -1.715,7.084l0,0.223c0.373,1.417 1.341,2.983 0.672,4.549c-1.492,5.355 -8.429,2.759 -7.907,-2.312c-0.372,-3.728 -3.505,-5.965 -5.295,-9.022c-2.758,-4.772 -0.299,-13.049 5.668,-13.347c6.787,-0.82 10.287,6.934 8.577,12.825Z" style="fill:#369bf0;fill-rule:nonzero;"/><path d="M381.691,173.215c0.895,-0.298 1.715,-0.746 2.387,-1.193c2.759,-1.864 5.817,-3.801 8.353,-0.447c2.457,3.131 1.192,7.232 2.532,11.483c1.339,3.951 10.419,11.11 7.291,15.061c-0.744,0.895 -1.934,1.193 -3.125,1.044c-12.143,-2.311 -1.785,-14.167 -7.742,-19.685c-2.611,-3.206 -7.682,-2.013 -10.143,0.373l-0.597,0.597c-9.619,7.978 -7.085,20.056 5.072,24.598c4.4,1.713 6.787,1.043 10.062,2.234c8.93,4.248 22.638,-1.713 20.402,-13.262c-1.118,-4.995 -6.257,-7.009 -8.641,-11.11c-2.607,-3.877 -7.297,-10.438 -2.458,-14.315c1.788,-0.82 3.724,0.671 6.033,0.522c5.438,-0.372 8.196,-7.149 4.544,-10.725c-0.074,-0.075 -0.223,-0.149 -0.298,-0.149c-3.277,-1.864 -6.48,-0.596 -9.683,0.373c-7.072,1.565 -14.069,1.937 -21.229,0.596c-15.659,-2.087 -14.84,17.062 -2.76,14.005Z" style="fill:#369bf0;fill-rule:nonzero;"/><path d="M425.062,172.627c0.075,0.224 0.224,0.373 0.224,0.522c1.938,4.696 6.11,8.943 4.248,14.379c-1.565,5.369 -6.112,9.548 -4.845,15.581c0.597,4.618 6.037,6.257 9.834,5.139c3.649,-1.118 6.556,-3.354 10.357,-3.504c5.144,0.075 9.84,2.162 14.908,2.907c0.298,0.075 0.522,0.075 0.82,0.075c12.076,-0.297 9.392,-17.516 -4.025,-12.664l-0.671,0.149c-1.863,0.448 -14.982,3.354 -17.666,-0.97c-1.267,-1.717 -2.011,-5.596 0.746,-6.117c5.366,-1.564 10.137,3.728 15.131,0.521c3.876,-1.713 10.585,1.49 12.374,-3.723c1.714,-5.214 -2.087,-8.344 -7.081,-7.897c-3.206,0.219 -9.616,5.737 -14.014,2.981c-4.174,-2.389 -5.887,-6.941 -1.64,-7.909c0.671,-0.224 1.267,-0.224 2.013,-0c4.025,0.745 8.348,1.415 12.672,1.415c5.665,0 12.522,-4.767 9.466,-11.025c-2.162,-4.917 -8.125,-6.408 -12.374,-3.502c-0.223,0.075 -0.298,0.224 -0.372,0.298c-3.131,2.533 -6.634,3.8 -10.734,3.204l-0.373,-0c-3.578,-0.224 -6.41,-2.459 -9.388,-4.395c-3.127,-2.013 -6.181,0.297 -8.268,2.681c-1.267,1.416 -2.087,3.129 -2.311,5.066c-0.224,2.316 0,4.925 0.969,6.788Z" style="fill:#369bf0;fill-rule:nonzero;"/><path d="M478.358,182.979c0.074,0.223 0.224,0.298 0.373,0.447c7.673,5.895 -1.64,11.861 1.714,18.488c2.906,6.707 11.246,2.604 17.135,6.408c4.174,2.311 18.038,-8.795 20.722,-12.299c3.354,-4.919 2.236,-14.684 -5.516,-12.821c-8.572,1.868 -2.758,10.369 -11.479,10.891c-1.938,0.149 -4.174,2.088 -6.038,2.536c-0.671,0.298 -1.416,0.372 -2.236,0.224c-3.651,-0.746 -0.969,-5.295 0.969,-7.234c1.863,-2.163 4.174,-4.027 5.367,-6.637c0.074,-0.224 0.149,-0.373 0.149,-0.522c1.118,-3.43 4.547,-8.201 7.976,-5.817c0.745,0.448 1.192,1.119 1.49,1.865c0.448,0.895 0.746,1.64 1.864,1.864c11.703,-0.597 10.137,-20.268 -3.653,-16.466c-0.223,0.074 -0.521,0.074 -0.745,0.148c-6.634,0.373 -10.286,-8.049 -16.695,-6.484c-9.012,2.311 -19.447,17.732 -11.397,25.409Z" style="fill:#369bf0;fill-rule:nonzero;"/><path d="M570.107,160.475c-5.59,-5.439 -12.075,-1.937 -18.11,-0.223c-5.809,1.64 -8.939,-2.831 -15.796,-2.906c-6.858,-0.223 -10.734,5.812 -9.02,12.366c0.373,2.309 2.982,4.844 5.442,4.397c3.131,-0.299 5.292,-3.578 8.572,-3.131c1.043,0.074 2.013,0.522 2.832,1.938c2.98,5.963 -1.118,12.075 -2.907,17.89c-1.49,3.95 -1.118,6.559 1.342,11.33c1.416,2.758 2.683,6.112 6.631,6.41c1.787,0.075 2.606,-0.075 3.872,-0.895c8.123,-5.739 -1.191,-11.777 0.298,-17.218c1.266,-3.28 3.054,-7.603 2.16,-10.51c-0.224,-0.597 -0.373,-1.267 -0.298,-2.013c0.074,-2.236 2.758,-3.95 4.77,-5.069c1.193,-0.521 2.46,-0.82 3.727,-0.894c2.609,-0.149 4.994,-1.192 6.411,-3.576c1.267,-2.16 2.31,-5.885 0.074,-7.896Z" style="fill:#369bf0;fill-rule:nonzero;"/><path d="M620.871,186.637c-3.128,-6.636 -11.996,-5.443 -16.993,-9.245c-2.833,-2.163 -5.145,-5.294 -8.426,-6.935c-0.373,-0.298 -0.746,-0.447 -1.417,-0.596c-1.789,-0.671 -1.566,-3.505 0.373,-3.728c2.237,-0.298 5.518,0.074 8.128,0.894c2.163,0.895 3.878,2.759 4.773,5.071c0.82,2.46 1.566,5.144 4.474,5.592c4.024,0.745 8.939,-0.97 10.13,-5.443c1.117,-4.623 -2.755,-8.571 -6.627,-9.539c-3.428,-0.745 -5.591,-3.798 -8.574,-4.915c-6.935,-2.235 -19.308,3.202 -24.522,8.042c-0.149,0.149 -0.298,0.149 -0.298,0.298c-4.62,6.114 0.447,14.688 7.076,15.732c6.931,0.149 9.914,8.426 16.253,9.619c3.132,0.745 8.725,-1.715 8.874,1.64c-0,0.82 -0.298,1.64 -0.82,2.237c-3.282,3.653 -8.8,4.398 -12.603,1.566c-5.593,-2.983 -8.054,-12.9 -15.204,-11.185c-2.905,0.895 -5.736,2.386 -6.705,5.443c-0.82,3.579 -1.342,7.68 2.31,10.286c5.661,4.022 12.738,6.181 19.823,7c6.04,0.671 8.948,-1.414 13.273,-2.457c7.744,-1.787 11.247,-10.28 6.702,-19.377Z" style="fill:#369bf0;fill-rule:nonzero;"/><path d="M201,186.985c-19.782,23.252 -49.284,38.015 -82.216,38.015c-59.488,-0 -107.784,-48.169 -107.784,-107.5c-0,-59.331 48.296,-107.5 107.784,-107.5c32.932,0 62.434,14.763 82.216,38.015" style="fill:none;stroke:#000;stroke-width:13.33px;"/><path d="M146.375,163.186c-12.66,9.538 -29.267,13.664 -45.923,9.913c-30.086,-6.775 -49.011,-36.702 -42.236,-66.788c5.027,-22.327 22.805,-38.507 43.936,-42.6" style="fill:none;stroke:#000;stroke-width:13.33px;"/></svg>